<svg width="512" height="512" xmlns="http://www.w3.org/2000/svg">

 <g>
  <title>background</title>
  <rect fill="none" id="canvas_background" height="402" width="582" y="-1" x="-1"/>
 </g>
 <g>
  <title>Layer 1</title>
  <path fill="#ffffff" id="svg_2" d="m447.5,511.5l-384,0c-35.375,0 -64,-28.625 -64,-64l0,-384c0,-35.375 28.625,-64 64,-64l384,0c35.375,0 64,28.625 64,64l0,384c0,35.375 -28.625,64 -64,64zm-192,-321c-35.875,0 -65,29.125 -65,65s29.125,65 65,65s65,-29.125 65,-65s-29.125,-65 -65,-65zm192,-127l-64,0l0,64l64,0l0,-64zm0,192l-56,0c0,75.125 -60.875,136 -136,136s-136,-60.875 -136,-136l-56,0l0,192l384,0l0,-192z"/>
 </g>
</svg>