<svg width="429" height="288" viewBox="0 0 429 288" fill="none" xmlns="http://www.w3.org/2000/svg">
<path d="M179.937 49.3287C179.937 50.9856 178.594 52.3287 176.937 52.3287H57.292C55.6351 52.3287 54.292 53.6718 54.292 55.3287V110.127C54.292 112.955 58.0623 114.389 60.2087 112.547C64.9148 108.509 70.6982 105.038 77.5588 102.137C87.6409 97.8727 98.3659 95.742 109.747 95.742C130.429 95.742 147.365 100.267 160.55 109.307C173.734 118.355 183.296 129.918 189.246 143.998C195.19 158.086 198.164 173.137 198.164 189.155C198.164 218.875 189.694 242.779 172.763 260.865C155.827 278.955 131.717 287.998 100.439 287.998C70.9664 287.998 47.4381 280.633 29.8593 265.905C13.0932 251.862 3.26867 233.71 0.374208 211.442C0.145761 209.684 1.53555 208.153 3.30787 208.153H50.342C51.7451 208.153 52.9511 209.129 53.3248 210.481C55.8835 219.74 60.9238 227.231 68.4479 232.961C76.5904 239.163 86.9952 242.265 99.6651 242.265C114.918 242.265 126.424 237.486 134.18 227.923C141.936 218.366 145.815 205.702 145.815 189.937C145.815 174.171 141.869 161.707 133.988 153.307C126.099 144.913 114.531 140.71 99.281 140.71C88.4226 140.71 79.3703 143.422 72.135 148.849C65.4396 153.867 60.5167 160.433 57.3599 168.543C56.8951 169.737 55.763 170.555 54.4814 170.555H7.65283C5.99598 170.555 4.65284 169.212 4.65284 167.555V7.65137C4.65284 5.99451 5.99598 4.65137 7.65284 4.65137H176.937C178.594 4.65137 179.937 5.99451 179.937 7.65137V49.3287Z" fill="white"/>
<path d="M404.734 37.9853C404.733 37.9861 404.731 37.9856 404.73 37.9841C401.868 33.5006 398.674 29.4128 395.144 25.726C394.184 24.7235 392.649 24.5577 391.495 25.3285C387.546 27.9658 383.181 31.368 378.829 35.6747C370.702 43.7253 364.19 53.3493 359.462 64.2827V64.2827C359.212 64.8561 359.308 65.5196 359.687 66.0174C365.592 73.7754 369.616 83.3614 371.769 94.7707C374.227 107.824 375.454 123.907 375.454 143.029C375.454 162.152 374.293 179.141 371.967 192.453C369.64 205.765 364.726 216.483 357.229 224.624C349.733 232.765 338.743 236.835 324.27 236.835C309.797 236.835 298.799 232.765 291.305 224.624C290.403 223.643 289.536 222.624 288.71 221.569C288.548 221.363 288.224 221.408 288.114 221.645V221.645C282.813 233.8 275.487 244.499 266.347 253.448C263.494 256.236 260.647 258.679 257.893 260.81C256.425 261.947 256.246 264.127 257.625 265.372C273.766 279.942 295.981 287.227 324.27 287.227C361.751 287.227 388.575 274.435 404.737 248.848C420.891 223.267 428.972 187.992 428.972 143.029C428.972 98.0681 420.892 63.317 404.738 37.9865C404.738 37.9851 404.736 37.9846 404.734 37.9853V37.9853ZM279.042 217.312C279.042 217.312 279.041 217.311 279.041 217.311C279.898 215.326 280.696 213.3 281.432 211.23C281.688 210.511 281.646 209.724 281.347 209.023C279.215 204.039 277.621 198.516 276.562 192.453C274.236 179.144 273.075 162.675 273.075 143.029C273.075 123.384 274.297 107.827 276.76 94.7707C279.212 81.728 284.126 71.064 291.492 62.792C298.863 54.5253 309.783 50.392 324.265 50.392C333.842 50.392 341.866 52.2029 348.334 55.8247C349.969 56.7402 352.102 56.1751 352.947 54.5025C357.961 44.5759 364.407 35.7326 372.156 28.1413C375.505 24.8685 378.845 22.0695 382.036 19.6946C383.698 18.4576 383.746 15.948 382.012 14.8135C366.924 4.93853 347.674 0 324.267 0C286.775 0 259.952 12.6613 243.798 37.9867C227.638 63.3173 219.562 98.328 219.562 143.032C219.562 187.736 227.638 223.269 243.798 248.851C244.712 250.295 245.66 251.701 246.642 253.065C247.575 254.362 249.379 254.638 250.659 253.683C253.573 251.506 256.627 248.935 259.677 245.917C267.803 237.867 274.321 228.243 279.043 217.313C279.043 217.313 279.043 217.312 279.042 217.312V217.312Z" fill="white"/>
</svg>
